<svg width="16" height="18" viewBox="0 0 16 18" fill="none" xmlns="http://www.w3.org/2000/svg">
<g id="gg:check-r">
<g id="Group">
<path id="Vector" d="M6.82867 12.8748L4 10.0455L4.94267 9.1028L6.82867 10.9881L10.5993 7.2168L11.5427 8.16013L6.82867 12.8735V12.8748Z" fill="#328A27"/>
<path id="Vector_2" fill-rule="evenodd" clip-rule="evenodd" d="M0.666748 5.33268C0.666748 4.62544 0.9477 3.94716 1.4478 3.44706C1.94789 2.94697 2.62617 2.66602 3.33341 2.66602H12.6667C13.374 2.66602 14.0523 2.94697 14.5524 3.44706C15.0525 3.94716 15.3334 4.62544 15.3334 5.33268V14.666C15.3334 15.3733 15.0525 16.0515 14.5524 16.5516C14.0523 17.0517 13.374 17.3327 12.6667 17.3327H3.33341C2.62617 17.3327 1.94789 17.0517 1.4478 16.5516C0.9477 16.0515 0.666748 15.3733 0.666748 14.666V5.33268ZM3.33341 3.99935H12.6667C13.0204 3.99935 13.3595 4.13982 13.6096 4.38987C13.8596 4.63992 14.0001 4.97906 14.0001 5.33268V14.666C14.0001 15.0196 13.8596 15.3588 13.6096 15.6088C13.3595 15.8589 13.0204 15.9993 12.6667 15.9993H3.33341C2.97979 15.9993 2.64065 15.8589 2.39061 15.6088C2.14056 15.3588 2.00008 15.0196 2.00008 14.666V5.33268C2.00008 4.97906 2.14056 4.63992 2.39061 4.38987C2.64065 4.13982 2.97979 3.99935 3.33341 3.99935Z" fill="#328A27"/>
</g>
</g>
</svg>
